<svg width="90" height="90" viewBox="0 0 90 90" fill="none" xmlns="http://www.w3.org/2000/svg">
<rect width="90" height="90" rx="9" fill="white"/>
<path d="M72 13H16L20.9412 69.3684L44 76L67.0588 69.3684L72 13Z" fill="#0277BD"/>
<path d="M45 18V71L62.9854 65.6834L67 18H45Z" fill="#039BE5"/>
<path d="M59 26H45V32.6968H52.5385L52.0769 39.3937H45V46.0905H51.7692L51.3077 53.6244L45 55.9683V63L57.1538 58.6471L58.2308 39.3937L59 26Z" fill="white"/>
<path d="M45 26V32.6968H29.5217L29 26H45ZM37 39.3937L37.3478 46.0905H45V39.3937H37ZM37.6957 49.4389H30.7391L31.2609 58.6471L45 63V55.9683L37.8696 53.6244L37.6957 49.4389Z" fill="#EEEEEE"/>
</svg>
