<svg width="91" height="91" viewBox="0 0 91 91" fill="none" xmlns="http://www.w3.org/2000/svg">
<rect x="0.320374" y="0.660187" width="90" height="90" rx="9" fill="white"/>
<path d="M75.5226 41.6271L49.3535 15.458C48.2437 14.3428 46.782 13.7852 45.3204 13.7852C43.8587 13.7852 42.3971 14.3428 41.2873 15.458L36.1119 20.6333L42.5162 27.0376C44.6437 25.787 47.4154 26.0577 49.2398 27.8821C51.0642 29.7064 51.3294 32.4782 50.0789 34.6003L56.3749 40.8963C58.5024 39.6457 61.2741 39.9164 63.0985 41.7408C65.2639 43.9062 65.2639 47.4142 63.0985 49.5796C60.9331 51.745 57.4251 51.745 55.2597 49.5796C53.4353 47.7552 53.1646 44.9835 54.4151 42.856L48.1192 36.56C47.6699 36.8253 47.1989 37.0202 46.7062 37.1447V54.1703C49.0936 54.7874 50.8639 56.9366 50.8639 59.5189C50.8639 62.583 48.3844 65.0624 45.3204 65.0624C42.2563 65.0624 39.7769 62.583 39.7769 59.5189C39.7769 56.9366 41.5471 54.7874 43.9345 54.1703V37.1447C43.0088 36.9065 42.1264 36.4463 41.401 35.7209C39.5766 33.8965 39.3113 31.1248 40.5619 29.0027L34.1522 22.593L15.1182 41.6271C12.8878 43.8521 12.8878 47.4683 15.1182 49.6933L41.2873 75.8624C42.3971 76.9776 43.8587 77.5352 45.3204 77.5352C46.782 77.5352 48.2437 76.9776 49.3535 75.8624L75.5226 49.6933C77.753 47.4683 77.753 43.8521 75.5226 41.6271Z" fill="#05A8F7"/>
</svg>
