<svg width="90" height="90" viewBox="0 0 90 90" fill="none" xmlns="http://www.w3.org/2000/svg">
<rect width="90" height="90" rx="9" fill="white"/>
<g clip-path="url(#clip0_38_9)">
<mask id="mask0_38_9" style="mask-type:luminance" maskUnits="userSpaceOnUse" x="13" y="13" width="64" height="64">
<path d="M13 13H76.6717V76.6717H13V13Z" fill="white"/>
</mask>
<g mask="url(#mask0_38_9)">
<path d="M75.4719 42.0008L47.6714 14.2023C47.2905 13.8213 46.8383 13.519 46.3406 13.3127C45.8429 13.1065 45.3095 13.0003 44.7707 13.0003C44.232 13.0003 43.6985 13.1065 43.2008 13.3127C42.7031 13.519 42.2509 13.8213 41.8701 14.2023L36.0993 19.9759L43.4209 27.2974C44.2817 27.0051 45.2071 26.9594 46.0924 27.1657C46.9778 27.3719 47.7878 27.8217 48.4308 28.4643C49.0774 29.1116 49.5288 29.9277 49.7333 30.8195C49.9378 31.7112 49.8872 32.6425 49.5873 33.5068L56.6462 40.5636C57.5108 40.2634 58.4425 40.2128 59.3344 40.4177C60.2264 40.6226 61.0426 41.0747 61.6894 41.7222C62.1425 42.1752 62.5019 42.7131 62.7471 43.305C62.9924 43.8969 63.1186 44.5313 63.1186 45.172C63.1186 45.8127 62.9924 46.4471 62.7471 47.0391C62.5019 47.631 62.1425 48.1688 61.6894 48.6218C60.7734 49.5368 59.5316 50.0508 58.2369 50.0508C56.9421 50.0508 55.7003 49.5368 54.7843 48.6218C54.1039 47.9402 53.6402 47.0726 53.4518 46.128C53.2634 45.1835 53.3587 44.2044 53.7255 43.3139L47.1426 36.7331V54.0544C47.8375 54.3976 48.4405 54.9014 48.9018 55.5241C49.3632 56.1468 49.6695 56.8705 49.7955 57.6351C49.9215 58.3998 49.8635 59.1835 49.6263 59.9212C49.3891 60.659 48.9795 61.3297 48.4315 61.8776C47.9785 62.3307 47.4407 62.6901 46.8488 62.9353C46.2569 63.1806 45.6224 63.3068 44.9817 63.3068C44.341 63.3068 43.7066 63.1806 43.1147 62.9353C42.5228 62.6901 41.985 62.3307 41.532 61.8776C41.0788 61.4246 40.7193 60.8868 40.474 60.2948C40.2287 59.7028 40.1025 59.0683 40.1025 58.4275C40.1025 57.7867 40.2287 57.1522 40.474 56.5602C40.7193 55.9683 41.0788 55.4304 41.532 54.9774C41.9885 54.52 42.5311 54.1575 43.1285 53.911V36.4303C42.5335 36.1852 41.9929 35.825 41.5375 35.3704C41.0822 34.9158 40.7212 34.3757 40.4752 33.7811C40.2293 33.1865 40.1032 32.5492 40.1043 31.9058C40.1053 31.2624 40.2335 30.6255 40.4815 30.0317L33.2625 22.8114L14.1984 41.8705C13.4302 42.6402 12.9988 43.6833 12.9988 44.7708C12.9988 45.8583 13.4302 46.9014 14.1984 47.6711L42.0004 75.473C42.7701 76.241 43.813 76.6723 44.9003 76.6723C45.9876 76.6723 47.0305 76.241 47.8002 75.473L75.4719 47.8014C76.2401 47.0316 76.6716 45.9886 76.6716 44.9011C76.6716 43.8136 76.2401 42.7705 75.4719 42.0008Z" fill="#F03C2E"/>
</g>
</g>
<defs>
<clipPath id="clip0_38_9">
<rect width="63.75" height="63.75" fill="white" transform="translate(13 13)"/>
</clipPath>
</defs>
</svg>
