<svg width="90" height="90" viewBox="0 0 90 90" fill="none" xmlns="http://www.w3.org/2000/svg">
<rect width="90" height="90" rx="9" fill="white"/>
<mask id="mask0_28_64" style="mask-type:luminance" maskUnits="userSpaceOnUse" x="13" y="13" width="64" height="64">
<path d="M76.75 13H13V76.75H76.75V13Z" fill="white"/>
</mask>
<g mask="url(#mask0_28_64)">
<path fill-rule="evenodd" clip-rule="evenodd" d="M45.6783 13C28.4678 13 14.5549 27.6093 14.5549 45.6829C14.5549 60.1304 23.4695 72.3596 35.8361 76.6879C37.3824 77.0134 37.9486 75.9847 37.9486 75.1195C37.9486 74.3617 37.8978 71.7646 37.8978 69.0586C29.24 71.007 27.4371 65.1626 27.4371 65.1626C26.0456 61.3748 23.9842 60.4013 23.9842 60.4013C21.1505 58.3991 24.1905 58.3991 24.1905 58.3991C27.3339 58.6156 28.9832 61.754 28.9832 61.754C31.7654 66.7317 36.2483 65.3253 38.0519 64.4593C38.3093 62.3489 39.1342 60.888 40.0102 60.0765C33.1051 59.3189 25.84 56.5052 25.84 43.9511C25.84 40.3798 27.0759 37.458 29.0342 35.1855C28.7252 34.374 27.6429 31.0186 29.3439 26.5276C29.3439 26.5276 31.9717 25.6616 37.8971 29.8823C40.434 29.167 43.0501 28.803 45.6783 28.7999C48.3061 28.7999 50.985 29.1791 53.4588 29.8823C59.3847 25.6616 62.0126 26.5276 62.0126 26.5276C63.7137 31.0186 62.6306 34.374 62.3216 35.1855C64.3315 37.458 65.5165 40.3798 65.5165 43.9511C65.5165 56.5052 58.2513 59.2644 51.2947 60.0765C52.4286 61.1044 53.4071 63.0521 53.4071 66.1368C53.4071 70.5194 53.3561 74.0371 53.3561 75.1188C53.3561 75.9847 53.9232 77.0134 55.4686 76.6886C67.8354 72.359 76.7499 60.1304 76.7499 45.6829C76.8009 27.6093 62.8369 13 45.6783 13Z" fill="#05A8F7"/>
</g>
</svg>
