<svg width="90" height="90" viewBox="0 0 90 90" fill="none" xmlns="http://www.w3.org/2000/svg">
<rect width="90" height="90" rx="9" fill="white"/>
<g clip-path="url(#clip0_38_14)">
<path fill-rule="evenodd" clip-rule="evenodd" d="M44.78 14C27.2065 14 13 28.6094 13 46.6832C13 61.1305 22.1026 73.3599 34.7303 77.6882C36.3091 78.0136 36.8874 76.985 36.8874 76.1197C36.8874 75.362 36.8353 72.7649 36.8353 70.0588C27.9949 72.0072 26.154 66.1628 26.154 66.1628C24.7333 62.375 22.6282 61.4014 22.6282 61.4014C19.7347 59.3993 22.839 59.3993 22.839 59.3993C26.0486 59.6158 27.7328 62.7541 27.7328 62.7541C30.5735 67.732 35.1512 66.3255 36.9928 65.4595C37.2556 63.3491 38.098 61.8882 38.9924 61.0767C31.9416 60.319 24.5231 57.5054 24.5231 44.9513C24.5231 41.38 25.7851 38.4581 27.7848 36.1857C27.4693 35.3742 26.3641 32.0187 28.1009 27.5276C28.1009 27.5276 30.7843 26.6617 36.8347 30.8825C39.4251 30.167 42.0965 29.8031 44.78 29.8C47.4634 29.8 50.1988 30.1792 52.7247 30.8825C58.7758 26.6617 61.4591 27.5276 61.4591 27.5276C63.196 32.0187 62.0901 35.3742 61.7746 36.1857C63.827 38.4581 65.0369 41.38 65.0369 44.9513C65.0369 57.5054 57.6185 60.2646 50.5149 61.0767C51.6728 62.1047 52.672 64.0524 52.672 67.137C52.672 71.5198 52.62 75.0373 52.62 76.1191C52.62 76.985 53.1989 78.0136 54.7771 77.6889C67.4048 73.3592 76.5074 61.1305 76.5074 46.6832C76.5594 28.6094 62.3009 14 44.78 14Z" fill="#24292F"/>
</g>
<defs>
<clipPath id="clip0_38_14">
<rect width="63.75" height="63.75" fill="white" transform="translate(13 14)"/>
</clipPath>
</defs>
</svg>
