<svg width="90" height="90" viewBox="0 0 90 90" fill="none" xmlns="http://www.w3.org/2000/svg">
<rect width="90" height="90" rx="9" fill="white"/>
<path d="M73 13H16L21.0294 70.2632L44.5 77L67.9706 70.2632L73 13Z" fill="#05A8F7"/>
<path d="M46.4 46.6183V39.8043H58.8326L57.8206 59.3945L46.4 63.8235V56.6689L52.3271 54.284L52.7608 46.6183H46.4ZM59.2663 32.9904L59.7 26.1765H46.4V32.9904H59.2663Z" fill="white"/>
<path d="M46.4 56.6689V63.8235L31.5549 59.3944L30.8033 50.0253H38.3198L38.6956 54.284L46.4 56.6689ZM37.1923 32.9904H46.4V26.1765H29.3L30.6154 46.6183H46.4V39.8043H37.756L37.1923 32.9904Z" fill="white"/>
</svg>
