<svg width="90" height="90" viewBox="0 0 90 90" fill="none" xmlns="http://www.w3.org/2000/svg">
<rect width="90" height="90" rx="9" fill="white"/>
<path d="M73 13H16L21.0294 70.2632L44.5 77L67.9706 70.2632L73 13Z" fill="#E65100"/>
<path d="M45 18V72L63.8029 66.5831L68 18H45Z" fill="#FF6D00"/>
<path d="M45 46.6335V39.7557H59.0217L57.8804 59.5294L45 64V56.7783L51.6848 54.371L52.1739 46.6335H45ZM59.5109 32.8778L60 26H45V32.8778H59.5109Z" fill="white"/>
<path d="M45 56.7783V64L31.1099 59.5294L30.4066 50.0724H37.4396L37.7912 54.371L45 56.7783ZM36.3846 32.8778H45V26H29L30.2308 46.6335H45V39.7557H36.9121L36.3846 32.8778Z" fill="#EEEEEE"/>
</svg>
