<svg width="90" height="90" viewBox="0 0 90 90" fill="none" xmlns="http://www.w3.org/2000/svg">
<rect width="90" height="90" rx="9" fill="white"/>
<path d="M72.6364 13.451C72.3728 13.1638 72.0022 13 71.6122 13H17.3878C16.9978 13 16.6273 13.1638 16.3636 13.451C16.0999 13.7383 15.9709 14.1241 16.0055 14.5113L20.8906 69.2284C20.942 69.8002 21.3403 70.2818 21.8926 70.44L44.1114 76.7864C44.2349 76.8211 44.364 76.8392 44.4917 76.8392C44.6194 76.8392 44.7484 76.8211 44.872 76.7864L67.1102 70.44C67.6625 70.2818 68.0608 69.8002 68.1122 69.2284L72.9945 14.5113C73.0292 14.1241 72.8987 13.7383 72.6364 13.451Z" fill="#D3B62A"/>
<path d="M45.3384 17.9108V72.3066L63.4557 66.85L67.4997 17.9108H45.3384Z" fill="#FBD725"/>
<path d="M36.1732 53.1715L26.4585 50.4764V57.3391L41.7244 61.5733V43.5318V25.4903H36.1732V53.1715Z" fill="white"/>
<path d="M61.1537 57.7568L62.6164 40.7562L52.8268 42.144V31.0415H63.4505L63.9293 25.4903H47.2756V49.083L56.9903 47.4093L56.6433 52.6136L47.2756 55.188V61.5733L61.1537 57.7568Z" fill="white"/>
</svg>
