<svg width="90" height="90" viewBox="0 0 90 90" fill="none" xmlns="http://www.w3.org/2000/svg">
<rect width="90" height="90" rx="9" fill="white"/>
<g clip-path="url(#clip0_35_9)">
<path fill-rule="evenodd" clip-rule="evenodd" d="M38.089 12.5712C32.9997 12.5712 28.8742 16.5658 28.8742 21.4934V27.6703H44.8228V29.3861H21.7859C16.6967 29.3861 12.5712 33.3807 12.5712 38.3083V51.6917C12.5712 56.6193 16.6967 60.6138 21.7859 60.6138H27.1021V53.0644C27.1021 48.1368 31.2277 44.142 36.317 44.142H53.3287C57.635 44.142 61.1257 40.762 61.1257 36.5926V21.4934C61.1257 16.5658 57.0003 12.5712 51.9111 12.5712H38.089ZM35.9626 23.5523C37.7241 23.5523 39.1522 22.1696 39.1522 20.4639C39.1522 18.7582 37.7241 17.3754 35.9626 17.3754C34.2007 17.3754 32.7727 18.7582 32.7727 20.4639C32.7727 22.1696 34.2007 23.5523 35.9626 23.5523Z" fill="url(#paint0_linear_35_9)"/>
<path fill-rule="evenodd" clip-rule="evenodd" d="M51.9106 77.4288C56.9999 77.4288 61.1255 73.4343 61.1255 68.5068V62.3298H45.1768V60.614H68.2138C73.303 60.614 77.4284 56.6193 77.4284 51.6917V38.3083C77.4284 33.3808 73.303 29.3862 68.2138 29.3862H62.8975V36.9357C62.8975 41.8634 58.7719 45.858 53.6829 45.858H36.6709C32.3646 45.858 28.8738 49.238 28.8738 53.4074V68.5068C28.8738 73.4343 32.9995 77.4288 38.0885 77.4288H51.9106ZM54.0373 66.4477C52.2754 66.4477 50.8474 67.8304 50.8474 69.5361C50.8474 71.2419 52.2754 72.6245 54.0373 72.6245C55.7988 72.6245 57.2269 71.2419 57.2269 69.5361C57.2269 67.8304 55.7988 66.4477 54.0373 66.4477Z" fill="url(#paint1_linear_35_9)"/>
</g>
<defs>
<linearGradient id="paint0_linear_35_9" x1="36.8486" y1="12.5712" x2="36.8486" y2="60.6138" gradientUnits="userSpaceOnUse">
<stop stop-color="#327EBD"/>
<stop offset="1" stop-color="#1565A7"/>
</linearGradient>
<linearGradient id="paint1_linear_35_9" x1="53.1513" y1="29.3862" x2="53.1513" y2="77.4288" gradientUnits="userSpaceOnUse">
<stop stop-color="#FFDA4B"/>
<stop offset="1" stop-color="#F9C600"/>
</linearGradient>
<clipPath id="clip0_35_9">
<rect width="66" height="66" fill="white" transform="translate(12 12)"/>
</clipPath>
</defs>
</svg>
