<svg width="90" height="91" viewBox="0 0 90 91" fill="none" xmlns="http://www.w3.org/2000/svg">
<rect y="0.660187" width="90" height="90" rx="9" fill="white"/>
<path d="M44.3071 13.7852C32.2511 13.7852 29.7554 20.0108 29.7554 23.6162V30.4156H43.6141V31.8015H22.956C18.3816 31.8015 13.125 35.4069 13.125 45.6602C13.125 55.9135 18.3816 59.5189 22.956 59.5189H31.1413V51.2037C31.1413 48.1558 33.637 45.6602 36.6848 45.6602H53.3152C55.6701 45.6602 57.4728 43.8575 57.4728 41.5026V23.6162C57.4728 18.7657 52.8984 13.7852 44.3071 13.7852ZM38.0707 20.7145C39.5973 20.7145 40.8424 21.9597 40.8424 23.4863C40.8424 25.0129 39.5973 26.258 38.0707 26.258C36.544 26.258 35.2989 25.0129 35.2989 23.4863C35.2989 21.9597 36.544 20.7145 38.0707 20.7145ZM58.8587 31.8015V41.5026C58.8587 44.5504 56.363 47.0461 53.3152 47.0461H36.6848C34.3299 47.0461 32.5272 48.8488 32.5272 51.2037V67.7042C32.5272 72.5547 37.1016 77.5352 45.6929 77.5352C57.7489 77.5352 60.2446 71.3096 60.2446 67.7042V60.9048H46.3859V59.5189H67.044C71.6184 59.5189 76.875 55.9135 76.875 45.6602C76.875 35.4069 71.6184 31.8015 67.044 31.8015H58.8587ZM51.9293 65.0624C53.456 65.0624 54.7011 66.3075 54.7011 67.8341C54.7011 69.3607 53.456 70.6058 51.9293 70.6058C50.4027 70.6058 49.1576 69.3607 49.1576 67.8341C49.1576 66.3075 50.4027 65.0624 51.9293 65.0624Z" fill="#05A8F7"/>
</svg>
