<svg width="90" height="90" viewBox="0 0 90 90" fill="none" xmlns="http://www.w3.org/2000/svg">
<rect width="90" height="90" rx="9" fill="white"/>
<path d="M73 13H16L21.0294 70.2632L44.5 77L67.9706 70.2632L73 13Z" fill="#039BE5"/>
<path d="M60 26H46V32.8778H53.5385L53.0769 39.7557H46V46.6335H52.7692L52.3077 54.371L46 56.7783V64L58.1538 59.5294L59.2308 39.7557L60 26Z" fill="white"/>
<path d="M46 26V32.8778H29.5543L29 26H46ZM37.5 39.7557L37.8696 46.6335H46V39.7557H37.5ZM38.2391 50.0724H30.8478L31.4022 59.5294L46 64V56.7783L38.4239 54.371L38.2391 50.0724Z" fill="white"/>
</svg>
