<svg width="91" height="90" viewBox="0 0 91 90" fill="none" xmlns="http://www.w3.org/2000/svg">
<rect x="0.660217" width="90" height="90" rx="9" fill="white"/>
<path d="M74.6445 13.125H17.5352L22.5742 70.2344L46.0898 76.9531L69.6055 70.2344L74.6445 13.125Z" fill="#05A8F7"/>
<path d="M61.375 26.5626H46.0898V33.2813H54.3203L53.8164 40.0001H46.0898V46.7188H53.4805L52.9766 54.2774L46.0898 56.629V63.6837L59.3594 59.3165L60.5352 40.0001L61.375 26.5626Z" fill="white"/>
<path d="M46.09 26.5626V33.2813H31.1408L30.6369 26.5626H46.09ZM38.3635 40.0001L38.6994 46.7188H46.09V40.0001H38.3635ZM39.0353 50.0782H32.3166L32.8205 59.3165L46.09 63.6837V56.629L39.2033 54.2774L39.0353 50.0782Z" fill="white"/>
</svg>
