<svg width="91" height="91" viewBox="0 0 91 91" fill="none" xmlns="http://www.w3.org/2000/svg">
<rect x="0.660217" y="0.660187" width="90" height="90" rx="9" fill="white"/>
<path d="M45.6602 77.5352C63.2643 77.5352 77.5352 63.2643 77.5352 45.6602C77.5352 28.0561 63.2643 13.7852 45.6602 13.7852C28.0561 13.7852 13.7852 28.0561 13.7852 45.6602C13.7852 63.2643 28.0561 77.5352 45.6602 77.5352Z" fill="#05A8F7"/>
<mask id="mask0_28_64" style="mask-type:luminance" maskUnits="userSpaceOnUse" x="25" y="25" width="41" height="41">
<path d="M65.8477 25.4727H25.4727V65.8477H65.8477V25.4727Z" fill="white"/>
</mask>
<g mask="url(#mask0_28_64)">
<path fill-rule="evenodd" clip-rule="evenodd" d="M46.169 25.4727C35.269 25.4727 26.4575 34.7253 26.4575 46.1719C26.4575 55.3219 32.1034 63.0671 39.9356 65.8084C40.9149 66.0145 41.2735 65.363 41.2735 64.815C41.2735 64.3351 41.2413 62.6903 41.2413 60.9764C35.7581 62.2104 34.6162 58.509 34.6162 58.509C33.7349 56.1101 32.4293 55.4935 32.4293 55.4935C30.6347 54.2254 32.56 54.2254 32.56 54.2254C34.5508 54.3626 35.5954 56.3502 35.5954 56.3502C37.3574 59.5028 40.1966 58.6121 41.3389 58.0636C41.5019 56.727 42.0244 55.8017 42.5792 55.2878C38.2059 54.808 33.6047 53.026 33.6047 45.0751C33.6047 42.8132 34.3874 40.9628 35.6277 39.5235C35.432 39.0096 34.7466 36.8845 35.8238 34.0402C35.8238 34.0402 37.4881 33.4917 41.2409 36.1648C42.8476 35.7118 44.5044 35.4812 46.169 35.4793C47.8333 35.4793 49.5299 35.7194 51.0966 36.1648C54.8497 33.4917 56.514 34.0402 56.514 34.0402C57.5914 36.8845 56.9054 39.0096 56.7097 39.5235C57.9827 40.9628 58.7331 42.8132 58.7331 45.0751C58.7331 53.026 54.1319 54.7735 49.726 55.2878C50.4441 55.9388 51.0639 57.1724 51.0639 59.126C51.0639 61.9017 51.0316 64.1295 51.0316 64.8146C51.0316 65.363 51.3907 66.0145 52.3695 65.8088C60.2018 63.0667 65.8476 55.3219 65.8476 46.1719C65.8799 34.7253 57.0361 25.4727 46.169 25.4727Z" fill="white"/>
</g>
</svg>
