<svg width="90" height="90" viewBox="0 0 90 90" fill="none" xmlns="http://www.w3.org/2000/svg">
<rect width="90" height="90" rx="9" fill="white"/>
<path d="M73.125 13.125H16.875L21.8382 70.1645L45 76.875L68.1618 70.1645L73.125 13.125Z" fill="#05A8F7"/>
<path d="M46.8749 46.612V39.8246H59.144L58.1453 59.3382L46.8749 63.75V56.6233L52.7241 54.2477L53.1521 46.612H46.8749ZM59.572 33.0373L59.9999 26.25H46.8749V33.0373H59.572Z" fill="white"/>
<path d="M46.875 56.6233V63.75L32.2253 59.3382L31.4835 50.0056H38.9011L39.272 54.2477L46.875 56.6233ZM37.7885 33.0373H46.875V26.25H30L31.2981 46.612H46.875V39.8246H38.3448L37.7885 33.0373Z" fill="white"/>
</svg>
