<svg width="91" height="90" viewBox="0 0 91 90" fill="none" xmlns="http://www.w3.org/2000/svg">
<rect x="0.320374" width="90" height="90" rx="9" fill="white"/>
<path d="M73.4197 13.5727C73.1579 13.2875 72.7901 13.125 72.403 13.125H18.5731C18.186 13.125 17.8182 13.2875 17.5564 13.5727C17.2946 13.8579 17.1665 14.2409 17.2009 14.6253L22.0505 68.9442C22.1015 69.5118 22.4969 69.9899 23.0452 70.1469L45.1023 76.4472C45.2249 76.4816 45.353 76.4996 45.4798 76.4996C45.6065 76.4996 45.7347 76.4816 45.8573 76.4472L67.9337 70.1469C68.482 69.9899 68.8774 69.5118 68.9284 68.9442L73.7752 14.6253C73.8096 14.2409 73.6801 13.8579 73.4197 13.5727ZM27.5778 50.3286L37.2218 53.0041V25.5243H42.7326V43.4346V61.3448L27.5778 57.1414V50.3286ZM63.4727 40.6791L62.0206 57.5561L48.2435 61.3448V55.0059L57.543 52.4503L57.8874 47.2839L48.2435 48.9454V25.5243H64.776L64.3007 31.0352H53.7543V42.0568L63.4727 40.6791Z" fill="#05A8F7"/>
<path d="M37.2218 53.0041L27.5778 50.3286V57.1414L42.7326 61.3448V43.4346V25.5243H37.2218V53.0041Z" fill="white"/>
<path d="M62.0206 57.5561L63.4727 40.6791L53.7543 42.0568V31.0352H64.3007L64.776 25.5243H48.2435V48.9454L57.8874 47.2839L57.543 52.4503L48.2435 55.0059V61.3448L62.0206 57.5561Z" fill="white"/>
</svg>
