<svg width="90" height="90" viewBox="0 0 90 90" fill="none" xmlns="http://www.w3.org/2000/svg">
<rect width="90" height="90" rx="9" fill="white"/>
<path d="M72.6364 13.4522C72.3728 13.1642 72.0022 13 71.6122 13H17.3878C16.9978 13 16.6273 13.1642 16.3636 13.4522C16.0999 13.7402 15.9709 14.127 16.0055 14.5151L20.8906 69.3701C20.942 69.9433 21.3403 70.4261 21.8926 70.5847L44.1114 76.9471C44.2349 76.9819 44.364 77 44.4917 77C44.6194 77 44.7484 76.9819 44.872 76.9471L67.1102 70.5847C67.6625 70.4261 68.0608 69.9433 68.1122 69.3701L72.9945 14.5151C73.0292 14.127 72.8987 13.7402 72.6364 13.4522ZM26.4585 50.5708L36.1732 53.2727V25.5217H41.7244V43.6087V61.6957L26.4585 57.4508V50.5708ZM62.6165 40.8261L61.1537 57.8696L47.2756 61.6957V55.2943L56.6433 52.7134L56.9903 47.496L47.2756 49.1739V25.5217H63.9293L63.4505 31.087H52.8269V42.2174L62.6165 40.8261Z" fill="#05A8F7"/>
<path d="M36.1732 53.2727L26.4585 50.5708V57.4508L41.7244 61.6957V43.6087V25.5217H36.1732V53.2727Z" fill="white"/>
<path d="M61.1537 57.8696L62.6165 40.8261L52.8269 42.2174V31.087H63.4505L63.9293 25.5217H47.2756V49.1739L56.9903 47.496L56.6433 52.7134L47.2756 55.2943V61.6957L61.1537 57.8696Z" fill="white"/>
</svg>
