<?xml version="1.0" encoding="UTF-8" standalone="no"?>
<svg
   width="24"
   height="24"
   viewBox="0 0 24 24"
   version="1.1"
   id="svg1"
   sodipodi:docname="download-icon.svg"
   inkscape:version="1.3.2 (091e20e, 2023-11-25, custom)"
   xmlns:inkscape="http://www.inkscape.org/namespaces/inkscape"
   xmlns:sodipodi="http://sodipodi.sourceforge.net/DTD/sodipodi-0.dtd"
   xmlns="http://www.w3.org/2000/svg"
   xmlns:svg="http://www.w3.org/2000/svg">
  <defs
     id="defs1" />
  <sodipodi:namedview
     id="namedview1"
     pagecolor="#505050"
     bordercolor="#eeeeee"
     borderopacity="1"
     inkscape:showpageshadow="0"
     inkscape:pageopacity="0"
     inkscape:pagecheckerboard="0"
     inkscape:deskcolor="#505050"
     inkscape:zoom="33.125"
     inkscape:cx="11.984906"
     inkscape:cy="12"
     inkscape:window-width="1920"
     inkscape:window-height="991"
     inkscape:window-x="-9"
     inkscape:window-y="-9"
     inkscape:window-maximized="1"
     inkscape:current-layer="svg1" />
  <path
     fill-rule="evenodd"
     d="M12.9980198,13.1755756 L16.2428206,9.9309124 C16.6333615,9.54038811 17.2665533,9.54038811 17.6570942,9.9309124 C18.047635,10.3214367 18.047635,10.9546017 17.6570942,11.345126 L12,17.0019802 L6.34290583,11.345126 C5.95236498,10.9546017 5.95236498,10.3214367 6.34290583,9.9309124 C6.73344669,9.54038811 7.36663852,9.54038811 7.75717937,9.9309124 L10.9980198,13.1716154 L10.9980198,3.97514162 C10.9980198,3.46420012 11.445735,3.05000019 11.9980198,3.05000019 C12.5503045,3.05000019 12.9980198,3.46420012 12.9980198,3.97514162 L12.9980198,13.1755756 Z M6,19 L18,19 C18.5522847,19 19,19.4477153 19,20 C19,20.5522847 18.5522847,21 18,21 L6,21 C5.44771525,21 5,20.5522847 5,20 C5,19.4477153 5.44771525,19 6,19 Z"
     id="path1"
     style="fill:#ffffff" />
</svg>
