<svg width="60" height="60" viewBox="0 0 60 60" fill="none" xmlns="http://www.w3.org/2000/svg">
<circle cx="30" cy="30" r="30" fill="#05A8F7"/>
<g clip-path="url(#clip0_9_8)">
<path fill-rule="evenodd" clip-rule="evenodd" d="M30.4788 11C20.22 11 11.9268 19.7083 11.9268 30.4816C11.9268 39.0934 17.2406 46.383 24.6121 48.963C25.5338 49.157 25.8713 48.5438 25.8713 48.0281C25.8713 47.5764 25.841 46.0283 25.841 44.4153C20.6803 45.5767 19.6056 42.093 19.6056 42.093C18.7762 39.8352 17.5474 39.2549 17.5474 39.2549C15.8583 38.0614 17.6704 38.0614 17.6704 38.0614C19.5441 38.1905 20.5272 40.0612 20.5272 40.0612C22.1856 43.0283 24.8578 42.19 25.9329 41.6738C26.0863 40.4158 26.578 39.545 27.1002 39.0613C22.9842 38.6097 18.6536 36.9325 18.6536 29.4493C18.6536 27.3205 19.3903 25.5789 20.5576 24.2243C20.3734 23.7406 19.7283 21.7405 20.7422 19.0635C20.7422 19.0635 22.3086 18.5473 25.8406 21.0632C27.3528 20.6368 28.9122 20.4198 30.4788 20.418C32.0452 20.418 33.642 20.644 35.1166 21.0632C38.6489 18.5473 40.2153 19.0635 40.2153 19.0635C41.2293 21.7405 40.5837 23.7406 40.3995 24.2243C41.5976 25.5789 42.3039 27.3205 42.3039 29.4493C42.3039 36.9325 37.9733 38.5772 33.8266 39.0613C34.5025 39.674 35.0858 40.835 35.0858 42.6737C35.0858 45.2861 35.0554 47.3829 35.0554 48.0277C35.0554 48.5438 35.3934 49.157 36.3146 48.9634C43.6862 46.3826 48.9999 39.0934 48.9999 30.4816C49.0303 19.7083 40.7067 11 30.4788 11Z" fill="white"/>
</g>
<defs>
<clipPath id="clip0_9_8">
<rect width="38" height="38" fill="white" transform="translate(11 11)"/>
</clipPath>
</defs>
</svg>
