<svg width="60" height="60" viewBox="0 0 60 60" fill="none" xmlns="http://www.w3.org/2000/svg">
<circle cx="30" cy="30" r="30" fill="#05A8F7"/>
<g clip-path="url(#clip0_9_23)">
<path d="M13 15.4938C13 14.1548 14.1255 13.068 15.5128 13.068H44.4872C45.8751 13.068 47 14.1548 47 15.4938V44.5066C47 45.846 45.8751 46.932 44.4872 46.932H15.5128C14.1256 46.932 13 45.8461 13 44.507V15.4934V15.4938Z" fill="white"/>
<path d="M23.3323 41.4076V26.162H18.2445V41.4076H23.3328H23.3323ZM20.7895 24.0808C22.5633 24.0808 23.6676 22.9101 23.6676 21.4471C23.6344 19.9507 22.5633 18.8127 20.8232 18.8127C19.0819 18.8127 17.9446 19.9507 17.9446 21.4469C17.9446 22.91 19.0485 24.0807 20.7561 24.0807H20.7891L20.7895 24.0808ZM26.1484 41.4076H31.2358V32.8947C31.2358 32.4396 31.269 31.9834 31.4034 31.6584C31.7711 30.7476 32.6082 29.8049 34.014 29.8049C35.8545 29.8049 36.5912 31.2028 36.5912 33.2525V41.4076H41.6785V32.6662C41.6785 27.9836 39.1688 25.8045 35.8216 25.8045C33.0773 25.8045 31.872 27.3323 31.2024 28.3728H31.2362V26.1625H26.1487C26.2151 27.5927 26.1483 41.4082 26.1483 41.4082L26.1484 41.4076Z" fill="#05A8F7"/>
</g>
<defs>
<clipPath id="clip0_9_23">
<rect width="34" height="34" fill="white" transform="translate(13 13)"/>
</clipPath>
</defs>
</svg>
